<svg style="position: absolute; width: 0; height: 0;" width="0" height="0" version="1.1" xmlns="http://www.w3.org/2000/svg" xmlns:xlink="http://www.w3.org/1999/xlink">
<defs>
<symbol id="icon-flag" viewBox="0 0 33 32">
<title>flag</title>
<path class="path1" d="M5.714 4.571q0 1.286-1.143 1.964v22.607q0 0.232-0.17 0.402t-0.402 0.17h-1.143q-0.232 0-0.402-0.17t-0.17-0.402v-22.607q-1.143-0.679-1.143-1.964 0-0.946 0.67-1.616t1.616-0.67 1.616 0.67 0.67 1.616zM32 5.714v13.625q0 0.446-0.223 0.688t-0.705 0.491q-3.839 2.071-6.589 2.071-1.089 0-2.205-0.393t-1.938-0.857-2.063-0.857-2.545-0.393q-3.429 0-8.286 2.607-0.304 0.161-0.589 0.161-0.464 0-0.804-0.339t-0.339-0.804v-13.25q0-0.571 0.554-0.982 0.375-0.25 1.411-0.768 4.214-2.143 7.518-2.143 1.911 0 3.571 0.518t3.911 1.571q0.679 0.339 1.571 0.339 0.964 0 2.098-0.375t1.964-0.839 1.571-0.839 0.973-0.375q0.464 0 0.804 0.339t0.339 0.804z"></path>
</symbol>
<symbol id="icon-github" viewBox="0 0 30 32">
<title>github</title>
<path class="path1" d="M11.429 21.714q0 0.714-0.223 1.464t-0.768 1.357-1.295 0.607-1.295-0.607-0.768-1.357-0.223-1.464 0.223-1.464 0.768-1.357 1.295-0.607 1.295 0.607 0.768 1.357 0.223 1.464zM22.857 21.714q0 0.714-0.223 1.464t-0.768 1.357-1.295 0.607-1.295-0.607-0.768-1.357-0.223-1.464 0.223-1.464 0.768-1.357 1.295-0.607 1.295 0.607 0.768 1.357 0.223 1.464zM25.714 21.714q0-2.143-1.232-3.643t-3.339-1.5q-0.732 0-3.482 0.375-1.268 0.196-2.804 0.196t-2.804-0.196q-2.714-0.375-3.482-0.375-2.107 0-3.339 1.5t-1.232 3.643q0 1.571 0.571 2.741t1.446 1.839 2.179 1.071 2.5 0.527 2.661 0.125h3q1.464 0 2.661-0.125t2.5-0.527 2.179-1.071 1.446-1.839 0.571-2.741zM29.714 18.571q0 3.696-1.089 5.911-0.679 1.375-1.884 2.375t-2.518 1.536-3.036 0.848-3.063 0.393-2.982 0.080q-1.393 0-2.536-0.054t-2.634-0.223-2.723-0.536-2.446-0.92-2.161-1.446-1.536-2.054q-1.107-2.196-1.107-5.911 0-4.232 2.429-7.071-0.482-1.464-0.482-3.036 0-2.071 0.911-3.893 1.929 0 3.393 0.705t3.375 2.205q2.625-0.625 5.518-0.625 2.643 0 5 0.571 1.875-1.464 3.339-2.161t3.375-0.696q0.911 1.821 0.911 3.893 0 1.554-0.482 3 2.429 2.857 2.429 7.107z"></path>
</symbol>
<symbol id="icon-draft" viewBox="0 0 27 32">
<title>draft</title>
<path class="path1" d="M26.214 6.786q0.5 0.5 0.857 1.357t0.357 1.571v20.571q0 0.714-0.5 1.214t-1.214 0.5h-24q-0.714 0-1.214-0.5t-0.5-1.214v-28.571q0-0.714 0.5-1.214t1.214-0.5h16q0.714 0 1.571 0.357t1.357 0.857zM18.286 2.429v6.714h6.714q-0.179-0.518-0.393-0.732l-5.589-5.589q-0.214-0.214-0.732-0.393zM25.143 29.714v-18.286h-7.429q-0.714 0-1.214-0.5t-0.5-1.214v-7.429h-13.714v27.429h22.857zM6.857 14.286q0-0.25 0.161-0.411t0.411-0.161h12.571q0.25 0 0.411 0.161t0.161 0.411v1.143q0 0.25-0.161 0.411t-0.411 0.161h-12.571q-0.25 0-0.411-0.161t-0.161-0.411v-1.143zM20 18.286q0.25 0 0.411 0.161t0.161 0.411v1.143q0 0.25-0.161 0.411t-0.411 0.161h-12.571q-0.25 0-0.411-0.161t-0.161-0.411v-1.143q0-0.25 0.161-0.411t0.411-0.161h12.571zM20 22.857q0.25 0 0.411 0.161t0.161 0.411v1.143q0 0.25-0.161 0.411t-0.411 0.161h-12.571q-0.25 0-0.411-0.161t-0.161-0.411v-1.143q0-0.25 0.161-0.411t0.411-0.161h12.571z"></path>
</symbol>
</defs>
</svg>
